<svg width="371" height="125" viewBox="0 0 371 125" fill="none" xmlns="http://www.w3.org/2000/svg">
<path d="M43.2727 28.1818V42.7273H0.181818V28.1818H43.2727ZM10.0455 98V23.1364C10.0455 18.0758 11.0303 13.8788 13 10.5454C15 7.21211 17.7273 4.71211 21.1818 3.04545C24.6364 1.37878 28.5606 0.545448 32.9545 0.545448C35.9242 0.545448 38.6364 0.772723 41.0909 1.22727C43.5758 1.68182 45.4242 2.09091 46.6364 2.45454L43.1818 17C42.4242 16.7576 41.4848 16.5303 40.3636 16.3182C39.2727 16.1061 38.1515 16 37 16C34.1515 16 32.1667 16.6667 31.0455 18C29.9242 19.303 29.3636 21.1364 29.3636 23.5V98H10.0455ZM74.4659 4.90909V98H55.1023V4.90909H74.4659ZM121.523 99.3636C114.462 99.3636 108.356 97.8636 103.205 94.8636C98.0833 91.8333 94.1288 87.6212 91.3409 82.2273C88.553 76.803 87.1591 70.5152 87.1591 63.3636C87.1591 56.1515 88.553 49.8485 91.3409 44.4545C94.1288 39.0303 98.0833 34.8182 103.205 31.8182C108.356 28.7879 114.462 27.2727 121.523 27.2727C128.583 27.2727 134.674 28.7879 139.795 31.8182C144.947 34.8182 148.917 39.0303 151.705 44.4545C154.492 49.8485 155.886 56.1515 155.886 63.3636C155.886 70.5152 154.492 76.803 151.705 82.2273C148.917 87.6212 144.947 91.8333 139.795 94.8636C134.674 97.8636 128.583 99.3636 121.523 99.3636ZM121.614 84.3636C124.826 84.3636 127.508 83.4545 129.659 81.6364C131.811 79.7879 133.432 77.2727 134.523 74.0909C135.644 70.9091 136.205 67.2879 136.205 63.2273C136.205 59.1667 135.644 55.5455 134.523 52.3636C133.432 49.1818 131.811 46.6667 129.659 44.8182C127.508 42.9697 124.826 42.0455 121.614 42.0455C118.371 42.0455 115.644 42.9697 113.432 44.8182C111.25 46.6667 109.598 49.1818 108.477 52.3636C107.386 55.5455 106.841 59.1667 106.841 63.2273C106.841 67.2879 107.386 70.9091 108.477 74.0909C109.598 77.2727 111.25 79.7879 113.432 81.6364C115.644 83.4545 118.371 84.3636 121.614 84.3636ZM200.023 99.3636C192.962 99.3636 186.856 97.8636 181.705 94.8636C176.583 91.8333 172.629 87.6212 169.841 82.2273C167.053 76.803 165.659 70.5152 165.659 63.3636C165.659 56.1515 167.053 49.8485 169.841 44.4545C172.629 39.0303 176.583 34.8182 181.705 31.8182C186.856 28.7879 192.962 27.2727 200.023 27.2727C207.083 27.2727 213.174 28.7879 218.295 31.8182C223.447 34.8182 227.417 39.0303 230.205 44.4545C232.992 49.8485 234.386 56.1515 234.386 63.3636C234.386 70.5152 232.992 76.803 230.205 82.2273C227.417 87.6212 223.447 91.8333 218.295 94.8636C213.174 97.8636 207.083 99.3636 200.023 99.3636ZM200.114 84.3636C203.326 84.3636 206.008 83.4545 208.159 81.6364C210.311 79.7879 211.932 77.2727 213.023 74.0909C214.144 70.9091 214.705 67.2879 214.705 63.2273C214.705 59.1667 214.144 55.5455 213.023 52.3636C211.932 49.1818 210.311 46.6667 208.159 44.8182C206.008 42.9697 203.326 42.0455 200.114 42.0455C196.871 42.0455 194.144 42.9697 191.932 44.8182C189.75 46.6667 188.098 49.1818 186.977 52.3636C185.886 55.5455 185.341 59.1667 185.341 63.2273C185.341 67.2879 185.886 70.9091 186.977 74.0909C188.098 77.2727 189.75 79.7879 191.932 81.6364C194.144 83.4545 196.871 84.3636 200.114 84.3636ZM246.977 124.182V28.1818H266.068V39.9091H266.932C267.78 38.0303 269.008 36.1212 270.614 34.1818C272.25 32.2121 274.371 30.5758 276.977 29.2727C279.614 27.9394 282.886 27.2727 286.795 27.2727C291.886 27.2727 296.583 28.6061 300.886 31.2727C305.189 33.9091 308.629 37.8939 311.205 43.2273C313.78 48.5303 315.068 55.1818 315.068 63.1818C315.068 70.9697 313.811 77.5455 311.295 82.9091C308.811 88.2424 305.417 92.2879 301.114 95.0455C296.841 97.7727 292.053 99.1364 286.75 99.1364C282.992 99.1364 279.795 98.5152 277.159 97.2727C274.553 96.0303 272.417 94.4697 270.75 92.5909C269.083 90.6818 267.811 88.7576 266.932 86.8182H266.341V124.182H246.977ZM265.932 63.0909C265.932 67.2424 266.508 70.8636 267.659 73.9545C268.811 77.0455 270.477 79.4545 272.659 81.1818C274.841 82.8788 277.492 83.7273 280.614 83.7273C283.765 83.7273 286.432 82.8636 288.614 81.1364C290.795 79.3788 292.447 76.9545 293.568 73.8636C294.72 70.7424 295.295 67.1515 295.295 63.0909C295.295 59.0606 294.735 55.5151 293.614 52.4545C292.492 49.3939 290.841 47 288.659 45.2727C286.477 43.5455 283.795 42.6818 280.614 42.6818C277.462 42.6818 274.795 43.5151 272.614 45.1818C270.462 46.8485 268.811 49.2121 267.659 52.2727C266.508 55.3333 265.932 58.9394 265.932 63.0909Z" fill="black"/>
<path d="M327.977 98V28.1818H346.75V40.3636H347.477C348.75 36.0303 350.886 32.7576 353.886 30.5455C356.886 28.303 360.341 27.1818 364.25 27.1818C365.22 27.1818 366.265 27.2424 367.386 27.3636C368.508 27.4848 369.492 27.6515 370.341 27.8636V45.0455C369.432 44.7727 368.174 44.5303 366.568 44.3182C364.962 44.1061 363.492 44 362.159 44C359.311 44 356.765 44.6212 354.523 45.8636C352.311 47.0758 350.553 48.7727 349.25 50.9545C347.977 53.1364 347.341 55.6515 347.341 58.5V98H327.977Z" fill="#7C65F6"/>
</svg>
